<svg width="788" height="682" viewBox="0 0 788 682" fill="none" xmlns="http://www.w3.org/2000/svg" xmlns:xlink="http://www.w3.org/1999/xlink">
<mask id="mask_0_3558_176" style="mask-type:alpha" maskUnits="userSpaceOnUse" x="234" y="50" width="160" height="160">
<path d="M394,370C482.366,370 554,298.366 554,210C554,121.634 482.366,50 394,50C305.634,50 234,121.634 234,210C234,298.366 305.634,370 394,370Z" clip-rule="evenodd" fill-rule="evenodd" fill="#FFFFFF"/>
</mask>
<path d="M394,370C482.366,370 554,298.366 554,210C554,121.634 482.366,50 394,50C305.634,50 234,121.634 234,210C234,298.366 305.634,370 394,370Z" clip-rule="evenodd" fill-rule="evenodd" fill="#FFFFFF"/>
<rect  x="0" y="0" width="788" height="682" fill="url(#pattern_0_3558_177)"/>
</svg>
