<svg width="60" height="60" viewBox="0 0 60 60" fill="none" xmlns="http://www.w3.org/2000/svg" xmlns:xlink="http://www.w3.org/1999/xlink">
<path d="M30,0C13.431,0 0,13.431 0,30C0,46.569 13.431,60 30,60C46.569,60 60,46.569 60,30C60,13.431 46.569,0 30,0ZM29.164,25.422L29.102,24.384C28.913,21.694 30.57,19.236 33.193,18.283C34.159,17.944 35.796,17.902 36.866,18.198C37.285,18.325 38.083,18.749 38.649,19.13L39.678,19.83L40.811,19.469C41.44,19.279 42.28,18.961 42.657,18.749C43.014,18.558 43.329,18.453 43.329,18.516C43.329,18.876 42.552,20.105 41.902,20.783C41.021,21.736 41.272,21.821 43.056,21.185C44.126,20.825 44.147,20.825 43.937,21.228C43.812,21.44 43.161,22.181 42.469,22.859C41.293,24.024 41.23,24.151 41.23,25.126C41.23,26.63 40.517,29.765 39.804,31.481C38.482,34.701 35.649,38.028 32.816,39.701C28.829,42.053 23.52,42.646 19.05,41.269C17.56,40.803 15,39.616 15,39.405C15,39.341 15.776,39.256 16.721,39.235C18.693,39.193 20.666,38.642 22.345,37.667L23.478,36.989L22.177,36.545C20.33,35.909 18.672,34.447 18.253,33.07C18.127,32.625 18.169,32.604 19.344,32.604L20.561,32.583L19.533,32.096C18.316,31.481 17.203,30.443 16.658,29.384C16.259,28.621 15.755,26.694 15.902,26.545C15.944,26.482 16.385,26.609 16.889,26.778C18.337,27.308 18.525,27.181 17.686,26.291C16.112,24.681 15.63,22.287 16.385,20.02L16.742,19.003L18.127,20.38C20.96,23.156 24.296,24.808 28.115,25.295L29.164,25.422Z" clip-rule="evenodd" fill-rule="evenodd" fill="#FFFFFF"/>
</svg>
