<svg width="60" height="60" viewBox="0 0 60 60" fill="none" xmlns="http://www.w3.org/2000/svg" xmlns:xlink="http://www.w3.org/1999/xlink">
<path d="M30,0C13.431,0 0,13.431 0,30C0,46.569 13.431,60 30,60C46.569,60 60,46.569 60,30C60,13.431 46.569,0 30,0ZM32.127,30.318L32.127,46.639L25.374,46.639L25.374,30.318L22,30.318L22,24.694L25.374,24.694L25.374,21.317C25.374,16.729 27.279,14 32.691,14L37.198,14L37.198,19.625L34.381,19.625C32.274,19.625 32.135,20.411 32.135,21.878L32.127,24.693L37.229,24.693L36.632,30.318L32.127,30.318Z" clip-rule="evenodd" fill-rule="evenodd" fill="#FFFFFF"/>
</svg>
