<svg width="60" height="60" viewBox="0 0 60 60" fill="none" xmlns="http://www.w3.org/2000/svg" xmlns:xlink="http://www.w3.org/1999/xlink">
<path d="M30,0C13.431,0 0,13.431 0,30C0,46.569 13.431,60 30,60C46.569,60 60,46.569 60,30C60,13.431 46.569,0 30,0ZM23.404,14.097C25.111,14.019 25.656,14 30.001,14L29.997,14C34.343,14 34.887,14.019 36.593,14.097C38.297,14.175 39.46,14.444 40.48,14.84C41.533,15.248 42.423,15.795 43.313,16.685C44.203,17.574 44.75,18.467 45.16,19.519C45.553,20.537 45.823,21.699 45.903,23.403C45.98,25.109 46,25.655 46,30C46,34.346 45.98,34.89 45.903,36.596C45.823,38.299 45.553,39.462 45.16,40.48C44.75,41.532 44.203,42.424 43.313,43.314C42.424,44.204 41.533,44.752 40.481,45.16C39.463,45.556 38.299,45.826 36.596,45.904C34.889,45.981 34.345,46 30,46C25.654,46 25.109,45.981 23.403,45.904C21.7,45.826 20.537,45.556 19.519,45.16C18.467,44.752 17.574,44.204 16.685,43.314C15.796,42.424 15.249,41.532 14.84,40.479C14.445,39.462 14.175,38.299 14.097,36.596C14.019,34.889 14,34.346 14,30C14,25.655 14.02,25.109 14.096,23.402C14.173,21.7 14.443,20.537 14.84,19.519C15.25,18.467 15.796,17.574 16.686,16.685C17.576,15.795 18.468,15.249 19.521,14.84C20.538,14.444 21.701,14.175 23.404,14.097Z" clip-rule="evenodd" fill-rule="evenodd" fill="#FFFFFF"/>
<path d="M28.566,16.883C28.845,16.883 29.145,16.883 29.468,16.883L30.002,16.883C34.274,16.883 34.78,16.899 36.467,16.975C38.027,17.047 38.874,17.307 39.438,17.526C40.184,17.816 40.717,18.163 41.276,18.723C41.836,19.283 42.183,19.816 42.474,20.563C42.693,21.126 42.954,21.973 43.025,23.533C43.101,25.22 43.118,25.726 43.118,29.997C43.118,34.267 43.101,34.773 43.025,36.46C42.953,38.02 42.693,38.867 42.474,39.43C42.184,40.177 41.836,40.708 41.276,41.268C40.716,41.828 40.185,42.175 39.438,42.465C38.874,42.685 38.027,42.945 36.467,43.016C34.78,43.093 34.274,43.109 30.002,43.109C25.729,43.109 25.223,43.093 23.536,43.016C21.976,42.944 21.129,42.683 20.565,42.464C19.818,42.174 19.285,41.828 18.725,41.268C18.165,40.708 17.818,40.176 17.528,39.429C17.309,38.865 17.048,38.019 16.977,36.459C16.9,34.772 16.885,34.265 16.885,29.993C16.885,25.72 16.9,25.216 16.977,23.529C17.048,21.969 17.309,21.122 17.528,20.558C17.818,19.812 18.165,19.278 18.725,18.718C19.285,18.158 19.818,17.812 20.565,17.521C21.129,17.301 21.976,17.041 23.536,16.969C25.012,16.903 25.584,16.883 28.566,16.879L28.566,16.883ZM38.542,19.54C37.482,19.54 36.622,20.399 36.622,21.459C36.622,22.519 37.482,23.379 38.542,23.379C39.602,23.379 40.462,22.519 40.462,21.459C40.462,20.399 39.602,19.539 38.542,19.539L38.542,19.54ZM21.785,30C21.785,25.463 25.464,21.784 30.001,21.783C34.539,21.783 38.217,25.462 38.217,30C38.217,34.538 34.539,38.215 30.002,38.215C25.464,38.215 21.785,34.538 21.785,30Z" clip-rule="evenodd" fill-rule="evenodd" fill="#FFFFFF"/>
<path d="M30.002,24.667C32.947,24.667 35.335,27.055 35.335,30C35.335,32.946 32.947,35.334 30.002,35.334C27.056,35.334 24.668,32.946 24.668,30C24.668,27.055 27.056,24.667 30.002,24.667L30.002,24.667Z" clip-rule="evenodd" fill-rule="evenodd" fill="#FFFFFF"/>
</svg>
