<svg width="224" height="26" viewBox="0 0 224 26" fill="none" xmlns="http://www.w3.org/2000/svg" xmlns:xlink="http://www.w3.org/1999/xlink">
<path d="M11.212,24.252C17.908,24.252 21.256,21.768 21.256,16.8C21.256,15.552 20.884,14.448 20.14,13.488C19.396,12.528 18.1,11.52 16.252,10.464C15.676,10.128 14.968,9.738 14.128,9.294C13.288,8.85 12.628,8.496 12.148,8.232C11.668,7.968 11.176,7.662 10.672,7.314C10.168,6.966 9.802,6.63 9.574,6.306C9.346,5.982 9.232,5.64 9.232,5.28C9.232,4.128 9.94,3.552 11.356,3.552C12.244,3.552 13.216,3.774 14.272,4.218C15.328,4.662 16.288,5.106 17.152,5.55C18.016,5.994 18.664,6.216 19.096,6.216C19.36,6.216 19.606,6.162 19.834,6.054C20.062,5.946 20.254,5.766 20.41,5.514C20.566,5.262 20.644,4.956 20.644,4.596C20.644,3.276 19.636,2.028 17.62,0.852C15.604,-0.324 13.168,-0.912 10.312,-0.912C7,-0.912 4.444,-0.276 2.644,0.996C0.844,2.268 -0.056,3.912 -0.056,5.928C-0.056,6.552 0.088,7.23 0.376,7.962C0.664,8.694 1.126,9.432 1.762,10.176C2.398,10.92 3.16,11.544 4.048,12.048C4.72,12.432 5.416,12.816 6.136,13.2C6.856,13.584 7.438,13.896 7.882,14.136L9.214,14.856C9.658,15.096 10.006,15.294 10.258,15.45C10.51,15.606 10.738,15.774 10.942,15.954C11.146,16.134 11.29,16.314 11.374,16.494C11.458,16.674 11.5,16.872 11.5,17.088C11.5,17.832 10.96,18.204 9.88,18.204C8.704,18.204 7.156,17.886 5.236,17.25C3.316,16.614 2.104,16.296 1.6,16.296C0.928,16.296 0.418,16.482 0.07,16.854C-0.278,17.226 -0.452,17.676 -0.452,18.204C-0.452,18.684 -0.272,19.2 0.088,19.752C0.448,20.304 0.982,20.844 1.69,21.372C2.398,21.9 3.214,22.38 4.138,22.812C5.062,23.244 6.142,23.592 7.378,23.856C8.614,24.12 9.892,24.252 11.212,24.252ZM49.768,24C50.368,24 50.866,23.958 51.262,23.874C51.658,23.79 52.018,23.622 52.342,23.37C52.666,23.118 52.918,22.8 53.098,22.416C53.278,22.032 53.428,21.504 53.548,20.832C53.668,20.16 53.746,19.404 53.782,18.564C53.818,17.724 53.836,16.668 53.836,15.396C53.836,12.348 53.464,10.176 52.72,8.88C51.976,7.584 50.752,6.936 49.048,6.936C46.36,6.936 44.092,7.608 42.244,8.952L41.884,9.24C41.092,7.704 39.808,6.936 38.032,6.936C36.856,6.936 35.83,7.068 34.954,7.332C34.078,7.596 33.184,8.064 32.272,8.736C31.744,7.464 30.496,6.828 28.528,6.828C27.424,6.828 26.542,7.2 25.882,7.944C25.222,8.688 24.892,9.672 24.892,10.896L24.892,19.752C24.892,21.264 25.15,22.35 25.666,23.01C26.182,23.67 27.148,24 28.564,24C30.076,24 31.132,23.718 31.732,23.154C32.332,22.59 32.632,21.588 32.632,20.148L32.632,15.144C32.632,14.352 32.77,13.71 33.046,13.218C33.322,12.726 33.676,12.48 34.108,12.48C35.188,12.48 35.728,13.152 35.728,14.496L35.728,21.012C35.728,21.66 35.836,22.2 36.052,22.632C36.268,23.064 36.634,23.4 37.15,23.64C37.666,23.88 38.344,24 39.184,24C39.736,24 40.192,23.958 40.552,23.874C40.912,23.79 41.236,23.622 41.524,23.37C41.812,23.118 42.04,22.8 42.208,22.416C42.376,22.032 42.52,21.504 42.64,20.832C42.76,20.16 42.838,19.404 42.874,18.564C42.91,17.724 42.928,16.668 42.928,15.396C42.928,14.556 43.048,13.86 43.288,13.308C43.528,12.756 43.888,12.48 44.368,12.48C45.448,12.48 45.988,13.152 45.988,14.496L45.988,21.012C45.988,21.66 46.108,22.2 46.348,22.632C46.588,23.064 46.99,23.4 47.554,23.64C48.118,23.88 48.856,24 49.768,24ZM63.97,3.948C63.31,4.356 62.332,4.56 61.036,4.56C59.908,4.56 58.972,4.344 58.228,3.912C57.484,3.48 57.112,2.784 57.112,1.824C57.112,1.032 57.454,0.378 58.138,-0.138C58.822,-0.654 59.788,-0.912 61.036,-0.912C63.652,-0.912 64.96,0 64.96,1.824C64.96,2.832 64.63,3.54 63.97,3.948ZM60.856,24C62.368,24 63.424,23.718 64.024,23.154C64.624,22.59 64.924,21.588 64.924,20.148L64.924,10.788C64.924,9.276 64.564,8.238 63.844,7.674C63.124,7.11 62.116,6.828 60.82,6.828C59.716,6.828 58.834,7.2 58.174,7.944C57.514,8.688 57.184,9.672 57.184,10.896L57.184,19.752C57.184,21.264 57.442,22.35 57.958,23.01C58.474,23.67 59.44,24 60.856,24ZM75.148,22.74C74.5,23.58 73.504,24 72.16,24C70.816,24 69.832,23.622 69.208,22.866C68.584,22.11 68.272,20.772 68.272,18.852L68.2,3.66C68.2,3.036 68.266,2.484 68.398,2.004C68.53,1.524 68.71,1.116 68.938,0.78C69.166,0.444 69.448,0.168 69.784,-0.048C70.12,-0.264 70.486,-0.42 70.882,-0.516C71.278,-0.612 71.704,-0.66 72.16,-0.66C73.48,-0.66 74.47,-0.396 75.13,0.132C75.79,0.66 76.12,1.728 76.12,3.336L76.12,18.564C76.12,20.508 75.796,21.9 75.148,22.74ZM89.332,24.216C90.628,24.216 91.84,24 92.968,23.568C94.096,23.136 95.002,22.614 95.686,22.002C96.37,21.39 96.904,20.778 97.288,20.166C97.672,19.554 97.864,19.032 97.864,18.6C97.864,18.24 97.75,17.94 97.522,17.7C97.294,17.46 96.976,17.34 96.568,17.34C96.328,17.34 95.938,17.472 95.398,17.736C94.858,18 94.36,18.192 93.904,18.312C92.824,18.576 91.768,18.708 90.736,18.708C89.776,18.708 88.984,18.486 88.36,18.042C87.736,17.598 87.304,16.992 87.064,16.224L92.14,16.188C92.74,16.188 93.304,16.134 93.832,16.026C94.36,15.918 94.816,15.762 95.2,15.558C95.584,15.354 95.926,15.126 96.226,14.874C96.526,14.622 96.766,14.346 96.946,14.046C97.126,13.746 97.258,13.44 97.342,13.128C97.426,12.816 97.468,12.492 97.468,12.156C97.468,10.428 96.814,9.066 95.506,8.07C94.198,7.074 92.14,6.576 89.332,6.576C86.356,6.576 83.926,7.398 82.042,9.042C80.158,10.686 79.216,12.924 79.216,15.756C79.216,18.372 80.17,20.436 82.078,21.948C83.986,23.46 86.404,24.216 89.332,24.216ZM87.352,11.742C87.112,12.402 86.956,13.128 86.884,13.92C88.54,13.896 89.44,13.884 89.584,13.884C89.944,13.884 90.208,13.668 90.376,13.236C90.496,12.924 90.556,12.492 90.556,11.94C90.556,10.428 90.1,9.672 89.188,9.672C88.852,9.672 88.522,9.852 88.198,10.212C87.874,10.572 87.592,11.082 87.352,11.742ZM112.408,24.252C119.104,24.252 122.452,21.768 122.452,16.8C122.452,15.552 122.08,14.448 121.336,13.488C120.592,12.528 119.296,11.52 117.448,10.464C116.872,10.128 116.164,9.738 115.324,9.294C114.484,8.85 113.824,8.496 113.344,8.232C112.864,7.968 112.372,7.662 111.868,7.314C111.364,6.966 110.998,6.63 110.77,6.306C110.542,5.982 110.428,5.64 110.428,5.28C110.428,4.128 111.136,3.552 112.552,3.552C113.44,3.552 114.412,3.774 115.468,4.218C116.524,4.662 117.484,5.106 118.348,5.55C119.212,5.994 119.86,6.216 120.292,6.216C120.556,6.216 120.802,6.162 121.03,6.054C121.258,5.946 121.45,5.766 121.606,5.514C121.762,5.262 121.84,4.956 121.84,4.596C121.84,3.276 120.832,2.028 118.816,0.852C116.8,-0.324 114.364,-0.912 111.508,-0.912C108.196,-0.912 105.64,-0.276 103.84,0.996C102.04,2.268 101.14,3.912 101.14,5.928C101.14,6.552 101.284,7.23 101.572,7.962C101.86,8.694 102.322,9.432 102.958,10.176C103.594,10.92 104.356,11.544 105.244,12.048C105.916,12.432 106.612,12.816 107.332,13.2C108.052,13.584 108.634,13.896 109.078,14.136L110.41,14.856C110.854,15.096 111.202,15.294 111.454,15.45C111.706,15.606 111.934,15.774 112.138,15.954C112.342,16.134 112.486,16.314 112.57,16.494C112.654,16.674 112.696,16.872 112.696,17.088C112.696,17.832 112.156,18.204 111.076,18.204C109.9,18.204 108.352,17.886 106.432,17.25C104.512,16.614 103.3,16.296 102.796,16.296C102.124,16.296 101.614,16.482 101.266,16.854C100.918,17.226 100.744,17.676 100.744,18.204C100.744,18.684 100.924,19.2 101.284,19.752C101.644,20.304 102.178,20.844 102.886,21.372C103.594,21.9 104.41,22.38 105.334,22.812C106.258,23.244 107.338,23.592 108.574,23.856C109.81,24.12 111.088,24.252 112.408,24.252ZM138.832,23.82C137.896,24.108 136.912,24.252 135.88,24.252C132.904,24.252 130.456,23.454 128.536,21.858C126.616,20.262 125.656,18.072 125.656,15.288C125.656,13.512 126.094,11.958 126.97,10.626C127.846,9.294 129.052,8.286 130.588,7.602C132.124,6.918 133.888,6.576 135.88,6.576C137.776,6.576 139.342,6.798 140.578,7.242C141.814,7.686 142.696,8.28 143.224,9.024C143.752,9.768 144.016,10.656 144.016,11.688C144.016,12.144 143.926,12.612 143.746,13.092C143.566,13.572 143.29,14.052 142.918,14.532C142.546,15.012 142,15.402 141.28,15.702C140.56,16.002 139.72,16.152 138.76,16.152C138.328,16.152 137.974,16.128 137.698,16.08C137.422,16.032 137.134,15.93 136.834,15.774C136.534,15.618 136.312,15.36 136.168,15C136.024,14.64 135.952,14.184 135.952,13.632C135.952,13.152 136.042,12.57 136.222,11.886C136.402,11.202 136.492,10.752 136.492,10.536C136.492,9.984 136.18,9.708 135.556,9.708C135.1,9.708 134.692,9.96 134.332,10.464C133.972,10.968 133.696,11.598 133.504,12.354C133.312,13.11 133.216,13.896 133.216,14.712C133.216,15.912 133.582,16.884 134.314,17.628C135.046,18.372 136.036,18.744 137.284,18.744C138.508,18.744 139.564,18.6 140.452,18.312C140.812,18.216 141.25,18.036 141.766,17.772C142.282,17.508 142.648,17.376 142.864,17.376C143.2,17.376 143.476,17.436 143.692,17.556C143.908,17.676 144.058,17.82 144.142,17.988C144.226,18.156 144.268,18.336 144.268,18.528C144.268,18.864 144.154,19.272 143.926,19.752C143.698,20.232 143.344,20.736 142.864,21.264C142.384,21.792 141.826,22.278 141.19,22.722C140.554,23.166 139.768,23.532 138.832,23.82ZM162.484,24C162.988,24 163.42,23.964 163.78,23.892C164.14,23.82 164.47,23.706 164.77,23.55C165.07,23.394 165.316,23.172 165.508,22.884C165.7,22.596 165.868,22.248 166.012,21.84C166.156,21.432 166.264,20.91 166.336,20.274C166.408,19.638 166.462,18.936 166.498,18.168C166.534,17.4 166.552,16.488 166.552,15.432C166.552,13.368 166.384,11.7 166.048,10.428C165.712,9.156 165.196,8.226 164.5,7.638C163.804,7.05 162.88,6.756 161.728,6.756C159.184,6.756 157.024,7.296 155.248,8.376L155.248,3.156C155.248,1.548 154.924,0.48 154.276,-0.048C153.628,-0.576 152.668,-0.84 151.396,-0.84C150.196,-0.84 149.236,-0.492 148.516,0.204C147.796,0.9 147.436,1.992 147.436,3.48L147.508,18.816C147.508,20.736 147.82,22.074 148.444,22.83C149.068,23.586 150.052,23.964 151.396,23.964C152.692,23.964 153.658,23.55 154.294,22.722C154.93,21.894 155.248,20.496 155.248,18.528L155.248,14.568C155.248,14.304 155.266,14.064 155.302,13.848C155.338,13.632 155.398,13.446 155.482,13.29C155.566,13.134 155.662,12.99 155.77,12.858C155.878,12.726 155.998,12.624 156.13,12.552C156.262,12.48 156.406,12.42 156.562,12.372C156.718,12.324 156.892,12.3 157.084,12.3C158.14,12.3 158.668,12.984 158.668,14.352L158.704,21.012C158.704,22.02 158.998,22.77 159.586,23.262C160.174,23.754 161.14,24 162.484,24ZM186.73,21.912C184.846,23.472 182.476,24.252 179.62,24.252C177.748,24.252 176.062,23.916 174.562,23.244C173.062,22.572 171.862,21.564 170.962,20.22C170.062,18.876 169.612,17.304 169.612,15.504C169.612,12.768 170.548,10.596 172.42,8.988C174.292,7.38 176.692,6.576 179.62,6.576C182.548,6.576 184.936,7.38 186.784,8.988C188.632,10.596 189.556,12.768 189.556,15.504C189.556,18.216 188.614,20.352 186.73,21.912ZM179.62,20.076C178.996,20.076 178.516,19.614 178.18,18.69C177.844,17.766 177.676,16.692 177.676,15.468C177.676,14.676 177.748,13.932 177.892,13.236C178.036,12.54 178.264,11.952 178.576,11.472C178.888,10.992 179.248,10.752 179.656,10.752C180.256,10.752 180.712,11.226 181.024,12.174C181.336,13.122 181.492,14.22 181.492,15.468C181.492,16.716 181.336,17.796 181.024,18.708C180.712,19.62 180.244,20.076 179.62,20.076ZM209.446,21.912C207.562,23.472 205.192,24.252 202.336,24.252C200.464,24.252 198.778,23.916 197.278,23.244C195.778,22.572 194.578,21.564 193.678,20.22C192.778,18.876 192.328,17.304 192.328,15.504C192.328,12.768 193.264,10.596 195.136,8.988C197.008,7.38 199.408,6.576 202.336,6.576C205.264,6.576 207.652,7.38 209.5,8.988C211.348,10.596 212.272,12.768 212.272,15.504C212.272,18.216 211.33,20.352 209.446,21.912ZM202.336,20.076C201.712,20.076 201.232,19.614 200.896,18.69C200.56,17.766 200.392,16.692 200.392,15.468C200.392,14.676 200.464,13.932 200.608,13.236C200.752,12.54 200.98,11.952 201.292,11.472C201.604,10.992 201.964,10.752 202.372,10.752C202.972,10.752 203.428,11.226 203.74,12.174C204.052,13.122 204.208,14.22 204.208,15.468C204.208,16.716 204.052,17.796 203.74,18.708C203.428,19.62 202.96,20.076 202.336,20.076ZM222.244,22.74C221.596,23.58 220.6,24 219.256,24C217.912,24 216.928,23.622 216.304,22.866C215.68,22.11 215.368,20.772 215.368,18.852L215.296,3.66C215.296,3.036 215.362,2.484 215.494,2.004C215.626,1.524 215.806,1.116 216.034,0.78C216.262,0.444 216.544,0.168 216.88,-0.048C217.216,-0.264 217.582,-0.42 217.978,-0.516C218.374,-0.612 218.8,-0.66 219.256,-0.66C220.576,-0.66 221.566,-0.396 222.226,0.132C222.886,0.66 223.216,1.728 223.216,3.336L223.216,18.564C223.216,20.508 222.892,21.9 222.244,22.74Z" clip-rule="evenodd" fill-rule="evenodd" fill="#FFFFFF"/>
</svg>
