<svg width="88" height="72" viewBox="0 0 88 72" fill="none" xmlns="http://www.w3.org/2000/svg" xmlns:xlink="http://www.w3.org/1999/xlink">
  <path d="M19.427,28.491C24.632,28.491 28.866,22.113 28.866,14.272C28.866,6.434 24.632,0.056 19.427,0.056C14.222,0.056 9.988,6.434 9.988,14.272C9.988,22.113 14.223,28.491 19.427,28.491Z" fill="#FFFFFF"/>
  <path d="M64.342,28.491C69.547,28.491 73.781,22.113 73.781,14.272C73.781,6.434 69.547,0.056 64.342,0.056C59.138,0.056 54.904,6.434 54.904,14.272C54.904,22.113 59.139,28.491 64.342,28.491Z" fill="#FFFFFF"/>
  <path d="M85.264,44.934C84.733,44.353 83.922,44.194 83.241,44.55C72.318,50.198 58.057,53.309 43.086,53.309C28.117,53.309 13.856,50.198 2.932,44.551C2.25,44.198 1.438,44.354 0.91,44.935C0.38,45.516 0.249,46.4 0.583,47.133C5.546,58.03 23.026,65.639 43.086,65.639C63.155,65.639 80.635,58.027 85.593,47.131C85.926,46.399 85.793,45.514 85.264,44.934Z" transform="rotate(-14 43.087 55)" fill="#FFFFFF"/>
</svg>
